<svg id="Layer_1" data-name="Layer 1" xmlns="http://www.w3.org/2000/svg" viewBox="0 0 841.89 595.28"><defs><style>.cls-1{fill:#292633;}.cls-2{fill:none;stroke:#262262;stroke-miterlimit:10;}.cls-3{fill:#393644;}</style></defs><title>Artboard 1</title><path class="cls-1" d="M841.89,0V187.46c-45.44-2.19-91.62-4.34-136,3.13-17.17,2.89-34.17,7.22-51.77,7.21-20.67,0-40.56-6-61.18-7.09-16.33-.85-32.9,1.41-49-.67-21.93-2.82-40.59-13.27-61.37-19.2-27.9-8-60-7.4-87.34,1.52-24,7.84-44.16,21.68-68.9,28.17-26.9,7.06-56.63,4.73-84.29-.42a400,400,0,0,1-70.36-19.79c-20.13-7.76-39.61-17.21-61.76-20.73-37.68-6-75.86,6-110.94,17.92L0,0Z"/><path class="cls-2" d="M-1.1,177.51C34,165.64,72.16,153.6,109.84,159.59c22.15,3.52,41.63,13,61.76,20.73A400,400,0,0,0,242,200.11c27.66,5.15,57.39,7.48,84.29.42,24.74-6.49,44.86-20.33,68.9-28.17,27.37-8.92,59.44-9.48,87.34-1.52,20.78,5.93,39.44,16.38,61.37,19.2,16.14,2.08,32.71-.18,49,.67,20.62,1.08,40.51,7.08,61.18,7.09,17.6,0,34.6-4.32,51.77-7.21,44.42-7.47,90.6-5.32,136-3.13"/><line class="cls-2" x1="-1.1" y1="177.51"/><line class="cls-2" x1="841.89" y1="187.46" x2="841.89"/><line class="cls-2" x2="841.89"/><path class="cls-3" d="M841.89,387V595.28H0L-1.1,408.4a1305.74,1305.74,0,0,1,181.87-40.58c34.47-5.15,70.22-8.82,103.65,1.32,14.67,4.45,28.54,11.47,43.28,15.69,14,4,28.52,5.41,43,6.73,32.29,3,64.92,5.56,97,.89,29.71-4.32,58.29-14.78,87.84-20.15A261.84,261.84,0,0,1,672,377.6c26.19,7.26,51.39,18.62,78.17,23A154.59,154.59,0,0,0,841.89,387Z"/><path class="cls-2" d="M-1.1,408.4a1305.74,1305.74,0,0,1,181.87-40.58c34.47-5.15,70.22-8.82,103.65,1.32,14.67,4.45,28.54,11.47,43.28,15.69,14,4,28.52,5.41,43,6.73,32.29,3,64.92,5.56,97,.89,29.71-4.32,58.29-14.78,87.84-20.15A261.84,261.84,0,0,1,672,377.6c26.19,7.26,51.39,18.62,78.17,23A154.59,154.59,0,0,0,841.89,387"/><line class="cls-2" x1="-1.1" y1="408.4" y2="595.28"/><line class="cls-2" x1="841.89" y1="387.04" x2="841.89" y2="595.28"/><line class="cls-2" y1="595.28" x2="841.89" y2="595.28"/></svg>