<svg xmlns="http://www.w3.org/2000/svg" viewBox="0 0 842.89 235.47"><defs><style>.cls-1{fill:#1c1c23;}.cls-2{fill:none;stroke:#231f20;stroke-miterlimit:10;}</style></defs><title>Asset 1</title><g id="Layer_2" data-name="Layer 2"><g id="Layer_1-2" data-name="Layer 1"><path class="cls-1" d="M842.39,8.22V235H.5V36.13L56.26,18.7C74.46,13,92.81,7.28,111.76,5.3,177.79-1.6,243,37.37,308.6,27.37c20.06-3.05,39.16-10.59,58.79-15.82C394.19,4.41,422,1.58,449.66.76A585,585,0,0,1,586.43,12.82c19.49,4.07,38.88,9.15,58.74,10.34C711.59,27.13,779-12.37,842.39,8.22Z"/><path class="cls-2" d="M.5,36.13,56.26,18.7C74.46,13,92.81,7.28,111.76,5.3,177.79-1.6,243,37.37,308.6,27.37c20.06-3.05,39.16-10.59,58.79-15.82C394.19,4.41,422,1.58,449.66.76A585,585,0,0,1,586.43,12.82c19.49,4.07,38.88,9.15,58.74,10.34,66.42,4,133.85-35.53,197.22-14.94"/><line class="cls-2" x1="0.5" y1="36.13" x2="0.5" y2="234.97"/><line class="cls-2" x1="842.39" y1="8.22" x2="842.39" y2="234.97"/><line class="cls-2" x1="0.5" y1="234.97" x2="842.39" y2="234.97"/></g></g></svg>