<svg xmlns="http://www.w3.org/2000/svg" viewBox="0 0 843.99 233.57"><defs><style>.cls-1{fill:#393644;}.cls-2{fill:none;stroke:#262262;stroke-miterlimit:10;}</style></defs><title>Asset 3</title><g id="Layer_2" data-name="Layer 2"><g id="Layer_1-2" data-name="Layer 1"><path class="cls-1" d="M843.49,24.83V233.07H1.6L.5,46.19A1305.74,1305.74,0,0,1,182.37,5.61C216.84.46,252.59-3.21,286,6.93c14.67,4.45,28.54,11.47,43.28,15.69,14,4,28.52,5.41,43,6.73,32.29,3,64.92,5.56,97,.89,29.71-4.32,58.29-14.78,87.84-20.15a261.84,261.84,0,0,1,116.44,5.3c26.19,7.26,51.39,18.62,78.17,23A154.59,154.59,0,0,0,843.49,24.83Z"/><path class="cls-2" d="M.5,46.19A1305.74,1305.74,0,0,1,182.37,5.61C216.84.46,252.59-3.21,286,6.93c14.67,4.45,28.54,11.47,43.28,15.69,14,4,28.52,5.41,43,6.73,32.29,3,64.92,5.56,97,.89,29.71-4.32,58.29-14.78,87.84-20.15a261.84,261.84,0,0,1,116.44,5.3c26.19,7.26,51.39,18.62,78.17,23a154.59,154.59,0,0,0,91.75-13.53"/><line class="cls-2" x1="0.5" y1="46.19" x2="1.6" y2="233.07"/><line class="cls-2" x1="843.49" y1="24.83" x2="843.49" y2="233.07"/><line class="cls-2" x1="1.6" y1="233.07" x2="843.49" y2="233.07"/></g></g></svg>