<svg xmlns="http://www.w3.org/2000/svg" viewBox="0 0 200.31 199.47"><defs><style>.cls-1{fill:#bfbfbf;}.cls-2{fill:#ddd;}.cls-3{fill:#595a5a;}.cls-4{fill:#828282;}.cls-5{fill:#636464;}</style></defs><title>ladderT</title><g id="Layer_2" data-name="Layer 2"><g id="laddert"><g id="Ladder_T" data-name="Ladder T"><rect class="cls-1" x="0.53" y="193.87" width="199.47" height="5.59"/><rect class="cls-2" width="200.31" height="193.87"/><rect class="cls-3" x="61.57" width="12.67" height="193.87"/><rect class="cls-3" x="125.83" width="12.67" height="193.87"/><rect class="cls-4" x="61.57" y="15.02" width="76.92" height="14" rx="7" ry="7"/><rect class="cls-4" x="61.57" y="44.71" width="76.92" height="14" rx="7" ry="7"/><rect class="cls-4" x="61.57" y="72.65" width="76.92" height="14" rx="7" ry="7"/><rect class="cls-4" x="61.57" y="100.81" width="76.92" height="14" rx="7" ry="7"/><rect class="cls-4" x="60.78" y="128.83" width="76.92" height="14" rx="7" ry="7"/><rect class="cls-4" x="61.36" y="156.85" width="76.92" height="14" rx="7" ry="7"/><rect class="cls-5" x="79.92" y="15.02" width="40.25" height="14"/><rect class="cls-5" x="79.92" y="44.71" width="40.25" height="14"/><rect class="cls-5" x="79.92" y="72.82" width="40.25" height="13.89"/><rect class="cls-5" x="79.92" y="100.81" width="40.25" height="14"/><rect class="cls-5" x="79.92" y="128.68" width="40.25" height="14"/><rect class="cls-5" x="79.92" y="156.68" width="40.25" height="14"/></g></g></g></svg>