<svg xmlns="http://www.w3.org/2000/svg" xmlns:xlink="http://www.w3.org/1999/xlink" viewBox="0 0 201 203.5"><defs><style>.cls-1{fill:#1a1923;}.cls-2{fill:none;stroke:#231f20;stroke-miterlimit:10;}.cls-3{fill:#bfbfbf;}.cls-4{fill:#ddd;}.cls-5{fill:#595a5a;}.cls-6{fill:#828282;}.cls-7{fill:#636464;}.cls-8{fill:#e9ead6;}.cls-9{fill:#4e4e4f;}.cls-10{fill:url(#radial-gradient);}.cls-11{fill:url(#radial-gradient-2);}.cls-12{fill:url(#radial-gradient-3);}.cls-13{fill:url(#radial-gradient-4);}.cls-14{fill:url(#radial-gradient-5);}.cls-15{fill:url(#radial-gradient-6);}.cls-16{fill:url(#radial-gradient-7);}.cls-17{fill:url(#radial-gradient-8);}</style><radialGradient id="radial-gradient" cx="38.85" cy="65.71" r="22.36" gradientUnits="userSpaceOnUse"><stop offset="0" stop-color="#f0f3c0"/><stop offset="1" stop-color="#e3edbc" stop-opacity="0"/></radialGradient><radialGradient id="radial-gradient-2" cx="38.85" cy="37.71" r="22.36" xlink:href="#radial-gradient"/><radialGradient id="radial-gradient-3" cx="38.85" cy="150.87" r="22.36" xlink:href="#radial-gradient"/><radialGradient id="radial-gradient-4" cx="38.85" cy="122.87" r="22.36" xlink:href="#radial-gradient"/><radialGradient id="radial-gradient-5" cx="160.62" cy="149.83" r="22.36" xlink:href="#radial-gradient"/><radialGradient id="radial-gradient-6" cx="160.62" cy="121.83" r="22.36" xlink:href="#radial-gradient"/><radialGradient id="radial-gradient-7" cx="160.62" cy="65.14" r="22.36" xlink:href="#radial-gradient"/><radialGradient id="radial-gradient-8" cx="160.62" cy="37.14" r="22.36" xlink:href="#radial-gradient"/></defs><title>Modern_ladder_bottem</title><g id="Layer_2" data-name="Layer 2"><g id="laddert"><path class="cls-1" d="M6,101.68a67.31,67.31,0,0,0,1-18.3C5.53,70-1.52,57,1.06,43.74,2.8,34.88,8.77,27,9.29,18A23.07,23.07,0,0,0,5,3H194c-3.09,9.09-5.5,18.34-3.16,27.64.91,3.6,2.61,7,3.31,10.62.89,4.7,0,9.53.38,14.3A8.65,8.65,0,0,0,196,60.27c1.06,1.43,2.83,2.29,3.76,3.81s.81,3.69.55,5.57a119.43,119.43,0,0,1-5.75,23.44c-1.46,4.1-3.16,8.17-3.62,12.48-1,9.45,4,18.38,8,27,.81,1.71,1.61,3.55,1.32,5.4a12.74,12.74,0,0,1-1.46,3.53c-2,4.11-2.77,8.7-3.45,13.21l-3.44,22.72a21.51,21.51,0,0,0-.21,7.83,57.66,57.66,0,0,0,2,5.53c1.23,3.74.9,6.68.53,10.3a4.61,4.61,0,0,0-1,1.9H5.93a6,6,0,0,0-.41-1.07c1.78-4.7-1.08-8.8-2.34-14-4-16.3,6.93-33.2,3.91-49.67-.83-4.51-2.68-8.8-3.4-13.33C2.47,117.17,4.62,109.38,6,101.68Z"/><line class="cls-2" x1="193.26" y1="203" x2="5.93" y2="203"/><polyline class="cls-2" points="4.46 3 5.04 3 194.04 3 194.18 3"/><path class="cls-2" d="M5,3A23.07,23.07,0,0,1,9.29,18c-.52,9-6.49,16.9-8.23,25.76C-1.52,57,5.53,70,6.92,83.38a67.31,67.31,0,0,1-1,18.3c-1.34,7.7-3.49,15.49-2.27,23.21.72,4.53,2.57,8.82,3.4,13.33,3,16.47-7.87,33.37-3.91,49.67,1.26,5.24,4.12,9.34,2.34,14"/><path class="cls-2" d="M194,3c-3.09,9.09-5.5,18.34-3.16,27.64.91,3.6,2.61,7,3.31,10.62.89,4.7,0,9.53.38,14.3A8.65,8.65,0,0,0,196,60.27c1.06,1.43,2.83,2.29,3.76,3.81s.81,3.69.55,5.57a119.43,119.43,0,0,1-5.75,23.44c-1.46,4.1-3.16,8.17-3.62,12.48-1,9.45,4,18.38,8,27,.81,1.71,1.61,3.55,1.32,5.4a12.74,12.74,0,0,1-1.46,3.53c-2,4.11-2.77,8.7-3.45,13.21l-3.44,22.72a21.51,21.51,0,0,0-.21,7.83,57.66,57.66,0,0,0,2,5.53c1.23,3.74.9,6.68.53,10.3"/><rect class="cls-3" x="15.75" width="167.33" height="199.47"/><rect class="cls-4" x="22.41" width="154.67" height="193.87"/><rect class="cls-5" x="62.07" width="12.67" height="193.87"/><rect class="cls-5" x="126.33" width="12.67" height="193.87"/><rect class="cls-6" x="62.07" y="15.02" width="76.92" height="14" rx="7" ry="7"/><rect class="cls-6" x="62.07" y="44.71" width="76.92" height="14" rx="7" ry="7"/><rect class="cls-6" x="62.07" y="72.65" width="76.92" height="14" rx="7" ry="7"/><rect class="cls-6" x="62.07" y="100.81" width="76.92" height="14" rx="7" ry="7"/><rect class="cls-6" x="61.28" y="128.83" width="76.92" height="14" rx="7" ry="7"/><rect class="cls-6" x="61.86" y="156.85" width="76.92" height="14" rx="7" ry="7"/><rect class="cls-7" x="80.42" y="15.02" width="40.25" height="14"/><rect class="cls-7" x="80.42" y="44.71" width="40.25" height="14"/><rect class="cls-7" x="80.42" y="72.82" width="40.25" height="13.89"/><rect class="cls-7" x="80.42" y="100.81" width="40.25" height="14"/><rect class="cls-7" x="80.42" y="128.68" width="40.25" height="14"/><rect class="cls-7" x="80.42" y="156.68" width="40.25" height="14"/><rect class="cls-6" x="28.52" y="23.09" width="20.67" height="56.63"/><rect class="cls-8" x="31.19" y="24.73" width="15.33" height="52.83"/><rect class="cls-9" x="31.19" y="73.73" width="15.33" height="3.83"/><rect class="cls-9" x="31.19" y="66.73" width="15.33" height="3.83"/><rect class="cls-9" x="31.19" y="59.73" width="15.33" height="3.83"/><rect class="cls-9" x="31.19" y="52.73" width="15.33" height="3.83"/><rect class="cls-9" x="31.19" y="45.73" width="15.33" height="3.83"/><rect class="cls-9" x="31.19" y="38.73" width="15.33" height="3.83"/><rect class="cls-9" x="31.19" y="31.73" width="15.33" height="3.83"/><rect class="cls-9" x="31.19" y="24.73" width="15.33" height="3.83"/><ellipse class="cls-10" cx="38.85" cy="65.71" rx="16.45" ry="27"/><ellipse class="cls-11" cx="38.85" cy="37.71" rx="16.45" ry="27"/><rect class="cls-6" x="28.52" y="108.25" width="20.67" height="56.63"/><rect class="cls-8" x="31.19" y="109.88" width="15.33" height="52.83"/><rect class="cls-9" x="31.19" y="158.88" width="15.33" height="3.83"/><rect class="cls-9" x="31.19" y="151.88" width="15.33" height="3.83"/><rect class="cls-9" x="31.19" y="144.88" width="15.33" height="3.83"/><rect class="cls-9" x="31.19" y="137.88" width="15.33" height="3.83"/><rect class="cls-9" x="31.19" y="130.88" width="15.33" height="3.83"/><rect class="cls-9" x="31.19" y="123.88" width="15.33" height="3.83"/><rect class="cls-9" x="31.19" y="116.88" width="15.33" height="3.83"/><rect class="cls-9" x="31.19" y="109.88" width="15.33" height="3.83"/><ellipse class="cls-12" cx="38.85" cy="150.87" rx="16.45" ry="27"/><ellipse class="cls-13" cx="38.85" cy="122.87" rx="16.45" ry="27"/><rect class="cls-6" x="150.29" y="107.22" width="20.67" height="56.63"/><rect class="cls-8" x="152.96" y="108.85" width="15.33" height="52.83"/><rect class="cls-9" x="152.96" y="157.85" width="15.33" height="3.83"/><rect class="cls-9" x="152.96" y="150.85" width="15.33" height="3.83"/><rect class="cls-9" x="152.96" y="143.85" width="15.33" height="3.83"/><rect class="cls-9" x="152.96" y="136.85" width="15.33" height="3.83"/><rect class="cls-9" x="152.96" y="129.85" width="15.33" height="3.83"/><rect class="cls-9" x="152.96" y="122.85" width="15.33" height="3.83"/><rect class="cls-9" x="152.96" y="115.85" width="15.33" height="3.83"/><rect class="cls-9" x="152.96" y="108.85" width="15.33" height="3.83"/><ellipse class="cls-14" cx="160.62" cy="149.83" rx="16.45" ry="27"/><ellipse class="cls-15" cx="160.62" cy="121.83" rx="16.45" ry="27"/><rect class="cls-6" x="150.29" y="22.52" width="20.67" height="56.63"/><rect class="cls-8" x="152.96" y="24.15" width="15.33" height="52.83"/><rect class="cls-9" x="152.96" y="73.15" width="15.33" height="3.83"/><rect class="cls-9" x="152.96" y="66.15" width="15.33" height="3.83"/><rect class="cls-9" x="152.96" y="59.15" width="15.33" height="3.83"/><rect class="cls-9" x="152.96" y="52.15" width="15.33" height="3.83"/><rect class="cls-9" x="152.96" y="45.15" width="15.33" height="3.83"/><rect class="cls-9" x="152.96" y="38.15" width="15.33" height="3.83"/><rect class="cls-9" x="152.96" y="31.15" width="15.33" height="3.83"/><rect class="cls-9" x="152.96" y="24.15" width="15.33" height="3.83"/><ellipse class="cls-16" cx="160.62" cy="65.14" rx="16.45" ry="27"/><ellipse class="cls-17" cx="160.62" cy="37.14" rx="16.45" ry="27"/></g></g></svg>