<svg xmlns="http://www.w3.org/2000/svg" xmlns:xlink="http://www.w3.org/1999/xlink" viewBox="0 0 201 201.85"><defs><style>.cls-1{fill:#1a1923;}.cls-2{fill:none;stroke:#231f20;stroke-miterlimit:10;}.cls-3{fill:#bfbfbf;}.cls-4{fill:#ddd;}.cls-5{fill:#595a5a;}.cls-6{fill:#828282;}.cls-7{fill:#e9ead6;}.cls-8{fill:#4e4e4f;}.cls-9{fill:url(#radial-gradient);}.cls-10{fill:url(#radial-gradient-2);}.cls-11{fill:url(#radial-gradient-3);}.cls-12{fill:url(#radial-gradient-4);}.cls-13{fill:url(#radial-gradient-5);}.cls-14{fill:url(#radial-gradient-6);}.cls-15{fill:url(#radial-gradient-7);}.cls-16{fill:url(#radial-gradient-8);}.cls-17{fill:#636464;}</style><radialGradient id="radial-gradient" cx="40.14" cy="60.8" r="22.36" gradientUnits="userSpaceOnUse"><stop offset="0" stop-color="#f0f3c0"/><stop offset="1" stop-color="#e3edbc" stop-opacity="0"/></radialGradient><radialGradient id="radial-gradient-2" cx="40.14" cy="32.8" r="22.36" xlink:href="#radial-gradient"/><radialGradient id="radial-gradient-3" cx="40.14" cy="174.85" r="22.36" xlink:href="#radial-gradient"/><radialGradient id="radial-gradient-4" cx="40.14" cy="146.85" r="22.36" xlink:href="#radial-gradient"/><radialGradient id="radial-gradient-5" cx="159.14" cy="59.79" r="22.36" xlink:href="#radial-gradient"/><radialGradient id="radial-gradient-6" cx="159.14" cy="31.79" r="22.36" xlink:href="#radial-gradient"/><radialGradient id="radial-gradient-7" cx="159.14" cy="174.84" r="22.36" xlink:href="#radial-gradient"/><radialGradient id="radial-gradient-8" cx="159.14" cy="146.84" r="22.36" xlink:href="#radial-gradient"/></defs><title>Modern_ladder</title><g id="Layer_2" data-name="Layer 2"><g id="laddert"><path class="cls-1" d="M193.26,200H5.93a5.67,5.67,0,0,0-.41-1.06c1.78-4.68-1.08-8.76-2.34-14-4-16.19,6.93-33,3.91-49.36-.83-4.49-2.68-8.75-3.4-13.25-1.22-7.68.93-15.42,2.27-23.07a66.51,66.51,0,0,0,1-18.19C5.53,67.82-1.52,54.83,1.06,41.71,2.8,32.9,8.77,25.06,9.29,16.1A22.81,22.81,0,0,0,5,1.22H194c-3.09,9-5.5,18.22-3.16,27.46.91,3.58,2.61,7,3.31,10.56.89,4.67,0,9.48.38,14.21A8.53,8.53,0,0,0,196,58.13c1.06,1.43,2.83,2.28,3.76,3.79s.81,3.67.55,5.54a118.26,118.26,0,0,1-5.75,23.3c-1.46,4.07-3.16,8.12-3.62,12.4-1,9.39,4,18.27,8,26.84.81,1.71,1.61,3.53,1.32,5.38a12.56,12.56,0,0,1-1.46,3.5c-2,4.08-2.77,8.64-3.45,13.13l-3.44,22.58a21.24,21.24,0,0,0-.21,7.78,57.11,57.11,0,0,0,2,5.5c1.23,3.72.9,6.63.53,10.24A4.51,4.51,0,0,0,193.26,200Z"/><line class="cls-2" x1="193.26" y1="200" x2="5.93" y2="200"/><polyline class="cls-2" points="4.46 1.22 5.04 1.22 194.04 1.22 194.18 1.22"/><path class="cls-2" d="M5,1.22A22.81,22.81,0,0,1,9.29,16.1c-.52,9-6.49,16.8-8.23,25.61C-1.52,54.83,5.53,67.82,6.92,81.1A66.51,66.51,0,0,1,6,99.29c-1.34,7.65-3.49,15.39-2.27,23.07.72,4.5,2.57,8.76,3.4,13.25C10.11,152-.78,168.78,3.18,185c1.26,5.21,4.12,9.29,2.34,14"/><path class="cls-2" d="M194,1.22c-3.09,9-5.5,18.22-3.16,27.46.91,3.58,2.61,7,3.31,10.56.89,4.67,0,9.48.38,14.21A8.53,8.53,0,0,0,196,58.13c1.06,1.43,2.83,2.28,3.76,3.79s.81,3.67.55,5.54a118.26,118.26,0,0,1-5.75,23.3c-1.46,4.07-3.16,8.12-3.62,12.4-1,9.39,4,18.27,8,26.84.81,1.71,1.61,3.53,1.32,5.38a12.56,12.56,0,0,1-1.46,3.5c-2,4.08-2.77,8.64-3.45,13.13l-3.44,22.58a21.24,21.24,0,0,0-.21,7.78,57.11,57.11,0,0,0,2,5.5c1.23,3.72.9,6.63.53,10.24"/><rect class="cls-3" x="15.74" width="167.33" height="200.47"/><rect class="cls-4" x="22.4" width="154.67" height="200.68"/><rect class="cls-5" x="62.07" width="12.67" height="200.68"/><rect class="cls-5" x="126.32" width="12.67" height="200.47"/><rect class="cls-6" x="62.07" y="12.02" width="76.92" height="14" rx="7" ry="7"/><rect class="cls-6" x="62.07" y="41.71" width="76.92" height="14" rx="7" ry="7"/><rect class="cls-6" x="62.07" y="69.65" width="76.92" height="14" rx="7" ry="7"/><rect class="cls-6" x="62.07" y="97.81" width="76.92" height="14" rx="7" ry="7"/><rect class="cls-6" x="61.27" y="125.83" width="76.92" height="14" rx="7" ry="7"/><rect class="cls-6" x="61.85" y="153.85" width="76.92" height="14" rx="7" ry="7"/><rect class="cls-6" x="62.07" y="181.87" width="76.92" height="14" rx="7" ry="7"/><rect class="cls-6" x="29.81" y="19.02" width="20.67" height="56.63"/><rect class="cls-7" x="32.48" y="20.65" width="15.33" height="52.83"/><rect class="cls-8" x="32.48" y="69.65" width="15.33" height="3.83"/><rect class="cls-8" x="32.48" y="62.65" width="15.33" height="3.83"/><rect class="cls-8" x="32.48" y="55.65" width="15.33" height="3.83"/><rect class="cls-8" x="32.48" y="48.65" width="15.33" height="3.83"/><rect class="cls-8" x="32.48" y="41.65" width="15.33" height="3.83"/><rect class="cls-8" x="32.48" y="34.65" width="15.33" height="3.83"/><rect class="cls-8" x="32.48" y="27.65" width="15.33" height="3.83"/><rect class="cls-8" x="32.48" y="20.65" width="15.33" height="3.83"/><rect class="cls-6" x="29.81" y="132.54" width="20.67" height="56.63"/><rect class="cls-7" x="32.48" y="134.17" width="15.33" height="52.83"/><rect class="cls-8" x="32.48" y="183.17" width="15.33" height="3.83"/><rect class="cls-8" x="32.48" y="176.17" width="15.33" height="3.83"/><rect class="cls-8" x="32.48" y="169.17" width="15.33" height="3.83"/><rect class="cls-8" x="32.48" y="162.17" width="15.33" height="3.83"/><rect class="cls-8" x="32.48" y="155.17" width="15.33" height="3.83"/><rect class="cls-8" x="32.48" y="148.17" width="15.33" height="3.83"/><rect class="cls-8" x="32.48" y="141.17" width="15.33" height="3.83"/><rect class="cls-8" x="32.48" y="134.17" width="15.33" height="3.83"/><rect class="cls-6" x="148.81" y="132.27" width="20.67" height="56.63"/><rect class="cls-7" x="151.48" y="133.9" width="15.33" height="52.83"/><rect class="cls-8" x="151.48" y="182.9" width="15.33" height="3.83"/><rect class="cls-8" x="151.48" y="175.9" width="15.33" height="3.83"/><rect class="cls-8" x="151.48" y="168.9" width="15.33" height="3.83"/><rect class="cls-8" x="151.48" y="161.9" width="15.33" height="3.83"/><rect class="cls-8" x="151.48" y="154.9" width="15.33" height="3.83"/><rect class="cls-8" x="151.48" y="147.9" width="15.33" height="3.83"/><rect class="cls-8" x="151.48" y="140.9" width="15.33" height="3.83"/><rect class="cls-8" x="151.48" y="133.9" width="15.33" height="3.83"/><rect class="cls-6" x="148.81" y="17.17" width="20.67" height="56.63"/><rect class="cls-7" x="151.48" y="18.8" width="15.33" height="52.83"/><rect class="cls-8" x="151.48" y="67.8" width="15.33" height="3.83"/><rect class="cls-8" x="151.48" y="60.8" width="15.33" height="3.83"/><rect class="cls-8" x="151.48" y="53.8" width="15.33" height="3.83"/><rect class="cls-8" x="151.48" y="46.8" width="15.33" height="3.83"/><rect class="cls-8" x="151.48" y="39.8" width="15.33" height="3.83"/><rect class="cls-8" x="151.48" y="32.8" width="15.33" height="3.83"/><rect class="cls-8" x="151.48" y="25.8" width="15.33" height="3.83"/><rect class="cls-8" x="151.48" y="18.8" width="15.33" height="3.83"/><ellipse class="cls-9" cx="40.14" cy="60.8" rx="16.45" ry="27"/><ellipse class="cls-10" cx="40.14" cy="32.8" rx="16.45" ry="27"/><ellipse class="cls-11" cx="40.14" cy="174.85" rx="16.45" ry="27"/><ellipse class="cls-12" cx="40.14" cy="146.85" rx="16.45" ry="27"/><ellipse class="cls-13" cx="159.14" cy="59.79" rx="16.45" ry="27"/><ellipse class="cls-14" cx="159.14" cy="31.79" rx="16.45" ry="27"/><ellipse class="cls-15" cx="159.14" cy="174.84" rx="16.45" ry="27"/><ellipse class="cls-16" cx="159.14" cy="146.84" rx="16.45" ry="27"/><rect class="cls-17" x="80.06" y="12.02" width="40.25" height="14"/><rect class="cls-17" x="80.06" y="41.65" width="40.25" height="14"/><rect class="cls-17" x="80.06" y="69.76" width="40.25" height="13.89"/><rect class="cls-17" x="80.06" y="97.79" width="40.25" height="14"/><rect class="cls-17" x="80.06" y="125.79" width="40.25" height="14"/><rect class="cls-17" x="79.61" y="153.85" width="40.25" height="14"/><rect class="cls-17" x="79.61" y="182.17" width="40.25" height="13.7"/></g></g></svg>