<svg xmlns="http://www.w3.org/2000/svg" viewBox="0 0 393.26 222.09"><defs><style>.cls-1{fill:#4c4c4b;}.cls-1,.cls-2,.cls-3,.cls-4,.cls-5,.cls-6{stroke:#231f20;stroke-miterlimit:10;}.cls-2{fill:#575944;}.cls-3{fill:#191923;}.cls-4{fill:#535aa8;}.cls-5{fill:#40403f;}.cls-6{fill:none;}</style></defs><title>pod</title><g id="Layer_2" data-name="Layer 2"><g id="Layer_1-2" data-name="Layer 1"><polygon class="cls-1" points="196.07 221.59 392.2 221.59 392.76 0.5 196.63 0.5 0.5 0.5 0.5 221.59 196.07 221.59"/><polygon class="cls-2" points="195.59 217.41 387.35 217.41 387.9 4.67 196.14 4.67 4.38 4.67 4.38 217.41 195.59 217.41"/><polygon class="cls-1" points="195.63 212.54 382.98 212.54 383.51 9.55 196.16 9.55 8.81 9.55 8.81 212.54 195.63 212.54"/><polygon class="cls-3" points="195.91 208.42 379.15 208.42 379.67 14.43 196.44 14.43 13.2 14.43 13.2 208.42 195.91 208.42"/><rect class="cls-4" x="36.36" y="22.95" width="13.72" height="176.1" rx="3.89" ry="3.89"/><rect class="cls-4" x="81.71" y="23.33" width="13.72" height="176.1" rx="3.89" ry="3.89"/><rect class="cls-4" x="122.19" y="23.14" width="13.72" height="176.1" rx="3.89" ry="3.89"/><rect class="cls-4" x="167.53" y="23.52" width="13.72" height="176.1" rx="3.89" ry="3.89"/><rect class="cls-4" x="212.01" y="23.23" width="13.72" height="176.1" rx="3.89" ry="3.89"/><rect class="cls-4" x="257.35" y="23.61" width="13.72" height="176.1" rx="3.89" ry="3.89"/><rect class="cls-4" x="297.83" y="23.42" width="13.72" height="176.1" rx="3.89" ry="3.89"/><rect class="cls-4" x="343.18" y="23.8" width="13.72" height="176.1" rx="3.89" ry="3.89"/><rect class="cls-5" x="0.5" y="14.43" width="12.7" height="193.99" rx="6.35" ry="6.35"/><line class="cls-6" x1="0.5" y1="111" x2="13.2" y2="111.28"/></g></g></svg>