<svg xmlns="http://www.w3.org/2000/svg" xmlns:xlink="http://www.w3.org/1999/xlink" viewBox="0 0 185.07 199.47"><defs><style>.cls-1{fill:#bfbfbf;}.cls-2{fill:#ddd;}.cls-3{fill:#595a5a;}.cls-4{fill:#828282;}.cls-5{fill:#636464;}.cls-6{fill:#e9ead6;}.cls-7{fill:#4e4e4f;}.cls-8{fill:url(#radial-gradient);}.cls-9{fill:url(#radial-gradient-2);}.cls-10{fill:url(#radial-gradient-3);}.cls-11{fill:url(#radial-gradient-4);}</style><radialGradient id="radial-gradient" cx="23.11" cy="65.71" r="22.36" gradientUnits="userSpaceOnUse"><stop offset="0" stop-color="#f0f3c0"/><stop offset="1" stop-color="#e3edbc" stop-opacity="0"/></radialGradient><radialGradient id="radial-gradient-2" cx="23.11" cy="37.14" r="22.36" xlink:href="#radial-gradient"/><radialGradient id="radial-gradient-3" cx="23.11" cy="150.87" r="22.36" xlink:href="#radial-gradient"/><radialGradient id="radial-gradient-4" cx="23.11" cy="122.87" r="22.36" xlink:href="#radial-gradient"/></defs><title>LadderL</title><g id="Layer_2" data-name="Layer 2"><g id="laddert"><g id="Ladder_L" data-name="Ladder L"><rect class="cls-1" width="184.75" height="199.47"/><rect class="cls-2" x="6.66" width="178.41" height="193.87"/><rect class="cls-3" x="46.33" width="12.67" height="193.87"/><rect class="cls-3" x="110.58" width="12.67" height="193.87"/><rect class="cls-4" x="46.33" y="15.02" width="76.92" height="14" rx="7" ry="7"/><rect class="cls-4" x="46.33" y="44.71" width="76.92" height="14" rx="7" ry="7"/><rect class="cls-4" x="46.33" y="72.65" width="76.92" height="14" rx="7" ry="7"/><rect class="cls-4" x="46.33" y="100.81" width="76.92" height="14" rx="7" ry="7"/><rect class="cls-4" x="45.53" y="128.83" width="76.92" height="14" rx="7" ry="7"/><rect class="cls-4" x="46.11" y="156.85" width="76.92" height="14" rx="7" ry="7"/><rect class="cls-5" x="64.67" y="15.02" width="40.25" height="14"/><rect class="cls-5" x="64.67" y="44.71" width="40.25" height="14"/><rect class="cls-5" x="64.67" y="72.82" width="40.25" height="13.89"/><rect class="cls-5" x="64.67" y="100.81" width="40.25" height="14"/><rect class="cls-5" x="64.67" y="128.68" width="40.25" height="14"/><rect class="cls-5" x="64.67" y="156.68" width="40.25" height="14"/><rect class="cls-4" x="12.77" y="23.09" width="20.67" height="56.63"/><rect class="cls-6" x="15.44" y="24.73" width="15.33" height="52.83"/><rect class="cls-7" x="15.44" y="73.73" width="15.33" height="3.83"/><rect class="cls-7" x="15.44" y="66.73" width="15.33" height="3.83"/><rect class="cls-7" x="15.44" y="59.73" width="15.33" height="3.83"/><rect class="cls-7" x="15.44" y="52.73" width="15.33" height="3.83"/><rect class="cls-7" x="15.44" y="45.73" width="15.33" height="3.83"/><rect class="cls-7" x="15.44" y="38.73" width="15.33" height="3.83"/><rect class="cls-7" x="15.44" y="31.73" width="15.33" height="3.83"/><rect class="cls-7" x="15.44" y="24.73" width="15.33" height="3.83"/><ellipse class="cls-8" cx="23.11" cy="65.71" rx="16.45" ry="27"/><ellipse class="cls-9" cx="23.11" cy="37.14" rx="16.45" ry="27"/><rect class="cls-4" x="12.77" y="108.25" width="20.67" height="56.63"/><rect class="cls-6" x="15.44" y="109.88" width="15.33" height="52.83"/><rect class="cls-7" x="15.44" y="158.88" width="15.33" height="3.83"/><rect class="cls-7" x="15.44" y="151.88" width="15.33" height="3.83"/><rect class="cls-7" x="15.44" y="144.88" width="15.33" height="3.83"/><rect class="cls-7" x="15.44" y="137.88" width="15.33" height="3.83"/><rect class="cls-7" x="15.44" y="130.88" width="15.33" height="3.83"/><rect class="cls-7" x="15.44" y="123.88" width="15.33" height="3.83"/><rect class="cls-7" x="15.44" y="116.88" width="15.33" height="3.83"/><rect class="cls-7" x="15.44" y="109.88" width="15.33" height="3.83"/><ellipse class="cls-10" cx="23.11" cy="150.87" rx="16.45" ry="27"/><ellipse class="cls-11" cx="23.11" cy="122.87" rx="16.45" ry="27"/></g></g></g></svg>