<svg xmlns="http://www.w3.org/2000/svg" viewBox="0 0 205.41 212.27"><defs><style>.cls-1{fill:#1a1923;}.cls-2{fill:none;}.cls-2,.cls-3{stroke:#231f20;stroke-miterlimit:10;}.cls-3{fill:#5f4219;}</style></defs><title>ladder</title><g id="Layer_2" data-name="Layer 2"><g id="Layer_1-2" data-name="Layer 1"><path class="cls-1" d="M195.12,108.84c-1,10,4,19.42,8.22,28.53.83,1.81,1.65,3.75,1.35,5.71a13.87,13.87,0,0,1-1.49,3.72c-2.1,4.34-2.83,9.19-3.53,14l-3.51,24a23.49,23.49,0,0,0-.22,8.27c.43,2,1.38,3.88,2,5.84,1.26,3.95.92,7,.55,10.88a5,5,0,0,0-1,2H6.05a5.93,5.93,0,0,0-.42-1.13c1.82-5-1.1-9.3-2.39-14.84-4-17.21,7.09-35.06,4-52.46-.85-4.77-2.74-9.3-3.48-14.08-1.24-8.16,1-16.39,2.32-24.52a73.31,73.31,0,0,0,1-19.33c-1.43-14.12-8.63-27.92-6-41.87C2.85,34.17,9,25.84,9.49,16.32A25,25,0,0,0,5.14.5H198.31c-3.16,9.6-5.62,19.37-3.23,29.19.93,3.8,2.67,7.38,3.38,11.22.91,5,0,10.07.39,15.1a9.46,9.46,0,0,0,1.44,5c1.09,1.51,2.9,2.42,3.85,4s.83,3.9.56,5.89a130,130,0,0,1-5.88,24.76C197.33,100,195.59,104.29,195.12,108.84Z"/><line class="cls-2" x1="197.51" y1="211.76" x2="6.05" y2="211.76"/><polyline class="cls-2" points="4.55 0.5 5.14 0.5 198.31 0.5 198.45 0.5"/><path class="cls-2" d="M5.14.5A25,25,0,0,1,9.49,16.32C9,25.84,2.85,34.17,1.08,43.53c-2.64,13.95,4.56,27.75,6,41.87a73.31,73.31,0,0,1-1,19.33c-1.37,8.13-3.56,16.36-2.32,24.52.74,4.78,2.63,9.31,3.48,14.08,3.09,17.4-8,35.25-4,52.46,1.29,5.54,4.21,9.87,2.39,14.84"/><path class="cls-2" d="M198.31.5c-3.16,9.6-5.62,19.37-3.23,29.19.93,3.8,2.67,7.38,3.38,11.22.91,5,0,10.07.39,15.1a9.46,9.46,0,0,0,1.44,5c1.09,1.51,2.9,2.42,3.85,4s.83,3.9.56,5.89a130,130,0,0,1-5.88,24.76c-1.49,4.33-3.23,8.63-3.7,13.18-1,10,4,19.42,8.22,28.53.83,1.81,1.65,3.75,1.35,5.71a13.87,13.87,0,0,1-1.49,3.72c-2.1,4.34-2.83,9.19-3.53,14l-3.51,24a23.49,23.49,0,0,0-.22,8.27c.43,2,1.38,3.88,2,5.84,1.26,3.95.92,7,.55,10.88"/><rect class="cls-3" x="49.61" y="13.49" width="107.52" height="9.19" rx="4.06" ry="4.06"/><rect class="cls-3" x="49.61" y="44.28" width="107.52" height="9.19" rx="4.06" ry="4.06"/><rect class="cls-3" x="49.61" y="75.06" width="107.52" height="9.19" rx="4.06" ry="4.06"/><rect class="cls-3" x="49.61" y="105.85" width="107.52" height="9.19" rx="4.06" ry="4.06"/><rect class="cls-3" x="49.61" y="136.64" width="107.52" height="9.19" rx="4.06" ry="4.06"/><rect class="cls-3" x="49.61" y="167.42" width="107.52" height="9.19" rx="4.06" ry="4.06"/><rect class="cls-3" x="49.61" y="198.21" width="107.52" height="9.19" rx="4.06" ry="4.06"/><rect class="cls-3" x="46.07" y="0.5" width="8.06" height="211.27"/><rect class="cls-3" x="153.1" y="0.5" width="8.06" height="211.27"/></g></g></svg>